<?xml version="1.0" encoding="utf-8"?>
<!-- Generator: Adobe Illustrator 28.2.0, SVG Export Plug-In . SVG Version: 6.00 Build 0)  -->
<svg version="1.1" id="Layer_1" xmlns="http://www.w3.org/2000/svg" xmlns:xlink="http://www.w3.org/1999/xlink" x="0px" y="0px"
	 viewBox="0 0 1366 768" style="enable-background:new 0 0 1366 768;" xml:space="preserve">
<style type="text/css">
	.st0{fill:#E5E5E5;}
	.st1{fill:#FFFFFF;}
	.st2{fill:none;stroke:#FFFFFF;stroke-width:4;stroke-miterlimit:10;}
</style>
<g>
	<rect class="st0" width="1366" height="768"/>
</g>
<g>
	
		<image style="overflow:visible;opacity:0.75;" width="375" height="353" xlink:href="A798ECD638DD1AFD.png"  transform="matrix(1 0 0 1 788.9606 354.9606)">
	</image>
	<g>
		<path class="st1" d="M894,622c-1.2,0.9,0.2-4.7,0-7s-8.6-4.9-14-6.8c-3.6-1.3-5.5-3.9-5.2-7.6c0.2-3.3,5-5.5,8.2-6.6
			c5,3,9,8,13.3,6c3.7-2,4.1-13.8,11.7-18c8.8-4.8,20.5,0.6,29.1,1.5c0.9-6.8,5.1-12.5,3.9-19.6c-0.4-2.2,0.1-6.9,1-8.9
			c1.1-2.4,2.3-3.4,4.5-4.3c3.1-1.3,6.9-0.1,7.9,3.8c1.4,5.5,9.1,9.2,10.3,6.3c1.2-2.9-3.8-7.2-5.7-10.2c-4.6-7.2-3.3-14.1,5-15.7
			c7.7-1.4,12,6,15.5,4c0.8-0.4,3.1-4.3,3.5-5c6-10,20.1-3.2,26-8c5.3-4.4-2.1-13.9-2.4-21.1c0.4-10.9,8.3-16,14.6-19.2
			c1.3-0.7,2.4-2.2,3.1-3.6c1.6-3.2,2.1-7.2,4.3-9.9c6.4-7.6,12.4-21.3,14.6-25.1c1.7-3.6,6.5-2.9,9.9-1.1c3.7,2,5.7,1,8.5-1.8
			c5.9-5.8,11.6-4.2,13.9,3.8c1.2,4.1,1.4,8.5,1.8,12.8c0.3,3.3,2.7,5.2,1,10.3c-1.7,6.6-5.1,13.6-4.3,19.9
			c1.9,13.7-5.3,23.3-12.5,32.8c-2.8,3.7-9,4.7-14.7,5.7c-1.6,3.6-3.4,7-4.7,10.7c-3.2,9.3-5.3,10.2-14.1,5.1
			c-0.5-0.3-1.2-0.4-2-0.6c-4.4,1.5-8.7,3.3-10,8.5c-1.3,5.1-10,2.7-10.2,8.4c2.3,9.1-2.7,13.4-9.1,17c-5.2,3-9.7,1.2-11.4-4.6
			c-1.1-4-4.3-10.5-6.3-14.1c-1.3-2.3-1.9-2.2-4.5-2.8c-1.9-0.5-5.3-0.8-6.4,2.5c-1.1,3.3,1.8,7.7,6.7,8c3.7,0.3,7,2.3,7.1,6.9
			c0.1,4.3-2.3,6.6-6.2,7.9c-2,0.7-3.7,2.4-5.6,3.6c-1.4,0.8-3.2,2.5-4.3,2.1c-8.4-3-10.7,5-12.7,11.9c-3-3-10-11-14-4
			c1-3,1.8-5.4,1.9-7.1c0.1-1.2,0.3-3.5-1.3-4.7s-3.6,2.5-3.7,4c-0.6,5.8-3.3,7.8-9.1,8c-3.2,0.1-16,1.7-18.8,3.8
			C900.1,605.9,898,619,894,622z"/>
	</g>
</g>
<g>
	
		<image style="overflow:visible;opacity:0.75;" width="337" height="266" xlink:href="A798ECD638DD1AFF.png"  transform="matrix(1 0 0 1 294.9606 24.9606)">
	</image>
	<g>
		<g>
			<path class="st1" d="M380.6,205.2c31.4-8.8,54.7-32.7,79.9-52.2c25.4-19.7,54.8-34.5,85.9-42.6c-30.5,9.6-59.5,24.5-84.7,44.2
				C436.5,173.9,412.5,198,380.6,205.2L380.6,205.2z"/>
		</g>
	</g>
</g>
<g>
	
		<image style="overflow:visible;opacity:0.75;" width="547" height="505" xlink:href="A798ECD638DD1AFA.png"  transform="matrix(1 0 0 1 527.9606 -15.0394)">
	</image>
	<g>
		<g>
			<path class="st1" d="M613,70.9c123.1-4.3,248.2,40.6,338.5,124.7c4.3,4.4,8.3,9.3,11.5,14.6c3.2,5.4,5.5,11.2,7.3,17.1
				c6.9,23.7,13.7,47.5,17.2,71.9c3.6,24.4,3.2,49.7-4.6,73.3c-3.8,11.7-9.7,22.8-17.3,32.5c7.5-9.8,13.2-20.9,16.8-32.6
				c11.3-35.6,5.5-73.6-3.8-109c-14.6-53.2-12.1-55.4-56.4-90.5C834.7,105.1,723.7,68.5,613,70.9L613,70.9z"/>
		</g>
	</g>
</g>
<g>
	
		<image style="overflow:visible;opacity:0.75;" width="348" height="277" xlink:href="A798ECD638DD1AFB.png"  transform="matrix(1 0 0 1 693.9606 454.9606)">
	</image>
	<g>
		<g>
			<path class="st1" d="M954.6,540.5c4.8,8.5-1.1,18.8-8.6,23.6c-5.5,3.7-12.3,6.4-18.2,9.4c-26.4,13.1-51.3,29.3-74.1,48
				c-5.1,4.2-10.5,9-15.4,13.4c-3.4,3.1-7,6.4-11.6,7.5c-6.9,1.6-13.6-1.3-20.5-1.1c-9-0.3-18.1,1.5-26.5,5c8.2-3.9,17.3-5.9,26.5-6
				c4.5-0.1,9.1,0.7,13.6,1.2s8.8-0.6,12.3-3.4c3-2.3,7.2-6.5,10.1-9c25.4-22.9,54.1-42.1,85-56.8c5.9-2.8,12.8-5.5,18.3-9
				C953,558.8,959,549,954.6,540.5L954.6,540.5z"/>
		</g>
	</g>
</g>
<g>
	
		<image style="overflow:visible;opacity:0.75;" width="497" height="256" xlink:href="A798ECD638DD1B05.png"  transform="matrix(1 0 0 1 318.9606 517.9606)">
	</image>
	<g>
		<g>
			<path class="st1" d="M730.2,670.5c-18.3,12.4-41.5,17.3-63.2,13.7c-10.8-1.7-21.6-4.5-32.5-3.3c-20.6,3-31.5,12.4-54.2,5.7
				c-28.8-8.2-48.2-33.8-76-43.8c-6.8-2.5-14-4.2-21.1-5.6c-27.8-5.1-61.8-7.6-78.4-33.9c17.2,25.7,50.9,27.6,78.7,32.4
				c14.5,2.4,28.9,7.2,41.2,15.4c18.5,11.7,34.8,27.4,56.1,33.7c22.1,6.7,33.2-2.8,53.5-5.5c11.1-1.1,22.1,1.9,32.9,3.7
				C688.8,686.8,711.6,682.3,730.2,670.5L730.2,670.5z"/>
		</g>
	</g>
</g>
<g>
	
		<image style="overflow:visible;opacity:0.75;" width="263" height="545" xlink:href="A798ECD638DD1B07.png"  transform="matrix(1 0 0 1 214.9606 132.9606)">
	</image>
	<g>
		<g>
			<path class="st1" d="M389.7,592.1c-25.1-12.1-35.1-40.2-46.7-63.6c-3.9-8-8.2-15.8-13.2-23.2c-7.3-11.2-15.2-22.4-20-35
				c-4.8-12.7-6.5-26.2-7.4-39.6c-1.5-27.9-3.9-56.2,2.4-83.7c5.9-25.2,19.2-47.9,32.6-69.8c3.5-5.6,6.8-11.9,12.2-16.1
				c1.9-1.4,3.8-2.4,5.6-3.8c10.6-8.1,20.3-17.5,29.1-27.6c2.9-3.4,5.7-6.9,7.8-10.8c-4.2,7.9-10.4,14.5-16.5,21
				c-6.2,6.4-12.7,12.7-19.8,18.2c-3.6,2.7-7.5,4.8-10.1,8.5c-2.7,3.5-4.9,7.4-7.2,11.2c-4.6,7.7-9.1,15.4-13.3,23.2
				c-19.9,36.5-24,61.6-22.1,102.7c1.3,26.4,0.7,54.3,14.1,77.9c8.7,15.6,19.8,29.9,27.1,46.3C355.6,551.4,365,579.5,389.7,592.1
				L389.7,592.1z"/>
		</g>
	</g>
</g>
<g>
	
		<image style="overflow:visible;opacity:0.75;" width="707" height="431" xlink:href="A798ECD638DD1B0A.png"  transform="matrix(1 0 0 1 245.9606 2.9606)">
	</image>
	<g>
		<path class="st1" d="M334.7,339.2c0-1.5,0-3.1,0-4.6c0.1-5.4-3.3-12,3.1-16.4c0.2-0.1,0.1-1.2-0.2-1.4c-5.8-3.5-3-9.1-3-13.7
			c-0.2-46.6-0.2-93.3-0.1-139.9c0-4.2-1.1-9,4.1-10.7c-1.5-2.4-3.8-4.5-3.9-6.6c-0.3-17.6-0.2-35.2-0.2-53.9
			c10.3,0.9,20.1-3.5,29.1,3.1c1.2-0.8,2.8-2.5,4.8-3.1c2.2-0.6,4.6-0.3,7-0.3c71.3,0,142.6,0,213.9,0c4.7,0,10.1-1.4,13.1,6.8
			c1.1-7.1,5.1-6.8,9.2-6.8c73.3,0,146.6,0,219.9,0.1c2.9,0,5.7,1.5,9.4,2.6c5.9-5.6,14.1-1.9,23.3-2.2c0,9.5,0.1,18.5-0.1,27.5
			c1.2,0,2.5,0,3.7,0c0-7.1,0-14.2-0.1-21.3c0-3.1-0.7-6.3-1.1-9.6H331v14c0,81.8,0,163.6,0,245.4
			C332.1,345.3,333.4,342.2,334.7,339.2z"/>
	</g>
</g>
<g>
	
		<image style="overflow:visible;opacity:0.75;" width="360" height="300" xlink:href="A798ECD638DD1B0B.png"  transform="matrix(1 0 0 1 722.9606 29.9606)">
	</image>
	<g>
		<path class="st1" d="M996.5,231.4c2.5,5.6,1.7,11-2.5,12.6c-4.9,1.9-9.9-2.5-12-6c-4.7-8-1.7-3.9-10-17s-5-6-25-29
			c-18-17-29-22-53.3-34c-3.3-2.7-6.4-5.2-11.3-5.5c-4.7-0.2-8.1-3.2-9.7-8.5c-1.9-6.7-4.1-7.7-11.1-6.2c-9.4,2.1-18.2,0.6-27.1-2.8
			c-4.3-1.6-9.6-1.2-14.4-0.6c-4.3,0.5-8.1,1.2-10.4-3.2c-2.1-3.9,0.1-6.7,2.8-9.6c6.7-7.4,7.4-7.8,15.4-3.4
			c7.1-0.3,13.1-5.3,20,1.3c4,3.2,7.5,5.8,13.4,4.5c5.2-1.2,7.9,1.6,8.7,7c0.3,1.9-1,4.9,2,5.9s6.3-3.3,11-5
			c6.8-2.5,14.1-2.9,18.6,1.6c5.6,5.8,7.1,10.5,12.4,16.4c3,4,4.8,6.2,6.9,5.6c2.1-0.6,2.5-4.7,3.2-6.5c2-5.1,8-6.1,12.2-3.5
			c6.1,5.3,5.7,11.1,11.7,16.4c4,4,10.3,0.7,14.8,5.4C970,175,968,192,974,204C983,220,995,227,996.5,231.4z"/>
	</g>
</g>
<g>
	
		<image style="overflow:visible;opacity:0.75;" width="225" height="201" xlink:href="A798ECD638DD1B0D.png"  transform="matrix(1 0 0 1 148.9606 250.9606)">
	</image>
	<g>
		<path class="st1" d="M288.8,366.3c-14.3-7.5-28.6-15-42.8-22.7c-4-2.2-7.6-5-11.4-7.6c14.3,7.5,28.6,15,42.8,22.6
			C281.4,360.9,285,363.8,288.8,366.3z"/>
	</g>
</g>
<g>
	
		<image style="overflow:visible;opacity:0.75;" width="267" height="224" xlink:href="391A3AF637F4E696.png"  transform="matrix(1 0 0 1 408.9606 384.9606)">
	</image>
	<g>
		<path class="st1" d="M591,524c-14.3-7.5-70.9-38.7-85.1-46.4c-4-2.2-7.6-5-11.4-7.6c14.3,7.5,28.6,15,42.8,22.7
			C541.3,494.9,587.2,521.5,591,524z"/>
	</g>
</g>
<g>
	
		<image style="overflow:visible;opacity:0.75;" width="185" height="185" xlink:href="391A3AF637F4E691.png"  transform="matrix(1 0 0 1 213.9606 214.9606)">
	</image>
	<g>
		<circle class="st2" cx="306.2" cy="307.8" r="5.2"/>
	</g>
</g>
<g>
	
		<image style="overflow:visible;opacity:0.75;" width="185" height="185" xlink:href="391A3AF637F4E692.png"  transform="matrix(1 0 0 1 145.9606 283.9606)">
	</image>
	<g>
		<circle class="st2" cx="238.2" cy="376.8" r="5.2"/>
	</g>
</g>
<g>
	
		<image style="overflow:visible;opacity:0.75;" width="185" height="185" xlink:href="391A3AF637F4E690.png"  transform="matrix(1 0 0 1 196.9606 232.9606)">
	</image>
	<g>
		<circle class="st2" cx="289.2" cy="325.8" r="5.2"/>
	</g>
</g>
<g>
	
		<image style="overflow:visible;opacity:0.75;" width="185" height="185" xlink:href="391A3AF637F4E6AE.png"  transform="matrix(1 0 0 1 193.9606 249.9606)">
	</image>
	<g>
		<circle class="st2" cx="286.2" cy="342.8" r="5.2"/>
	</g>
</g>
<g>
	
		<image style="overflow:visible;opacity:0.75;" width="186" height="186" xlink:href="391A3AF637F4E6B1.png"  transform="matrix(1 0 0 1 176.9606 298.9606)">
	</image>
	<g>
		<circle class="st2" cx="270" cy="391.9" r="5.2"/>
	</g>
</g>
<g>
	
		<image style="overflow:visible;opacity:0.75;" width="186" height="186" xlink:href="391A3AF637F4E6B2.png"  transform="matrix(1 0 0 1 194.9606 334.9606)">
	</image>
	<g>
		<circle class="st2" cx="288" cy="427.9" r="5.2"/>
	</g>
</g>
<g>
	
		<image style="overflow:visible;opacity:0.75;" width="186" height="186" xlink:href="391A3AF637F4E6B0.png"  transform="matrix(1 0 0 1 233.9606 317.9606)">
	</image>
	<g>
		<circle class="st2" cx="327" cy="410.9" r="5.2"/>
	</g>
</g>
<g>
	
		<image style="overflow:visible;opacity:0.75;" width="186" height="186" xlink:href="391A3AF637F4E6B6.png"  transform="matrix(1 0 0 1 244.9606 375.9606)">
	</image>
	<g>
		<circle class="st2" cx="338" cy="468.9" r="5.2"/>
	</g>
</g>
<g>
	
		<image style="overflow:visible;opacity:0.75;" width="186" height="186" xlink:href="391A3AF637F4E6B3.png"  transform="matrix(1 0 0 1 231.9606 344.9606)">
	</image>
	<g>
		<circle class="st2" cx="325" cy="437.9" r="5.2"/>
	</g>
</g>
<g>
	
		<image style="overflow:visible;opacity:0.75;" width="186" height="186" xlink:href="391A3AF637F4E6D5.png"  transform="matrix(1 0 0 1 236.9606 354.9606)">
	</image>
	<g>
		<circle class="st2" cx="330" cy="447.9" r="5.2"/>
	</g>
</g>
<g>
	
		<image style="overflow:visible;opacity:0.75;" width="186" height="186" xlink:href="391A3AF637F4E6D7.png"  transform="matrix(1 0 0 1 717.9606 507.9606)">
	</image>
	<g>
		<circle class="st2" cx="811" cy="600.9" r="5.2"/>
	</g>
</g>
<g>
	
		<image style="overflow:visible;opacity:0.75;" width="186" height="186" xlink:href="391A3AF637F4E6D4.png"  transform="matrix(1 0 0 1 852.9606 504.9606)">
	</image>
	<g>
		<circle class="st2" cx="946" cy="597.9" r="5.2"/>
	</g>
</g>
<g>
	
		<image style="overflow:visible;opacity:0.75;" width="186" height="186" xlink:href="391A3AF637F4E6D3.png"  transform="matrix(1 0 0 1 730.9606 508.9606)">
	</image>
	<g>
		<circle class="st2" cx="824" cy="601.9" r="5.2"/>
	</g>
</g>
<g>
	
		<image style="overflow:visible;opacity:0.75;" width="186" height="186" xlink:href="391A3AF637F4E6DD.png"  transform="matrix(1 0 0 1 806.9606 540.9606)">
	</image>
	<g>
		<circle class="st2" cx="900" cy="633.9" r="5.2"/>
	</g>
</g>
<g>
	
		<image style="overflow:visible;opacity:0.75;" width="186" height="186" xlink:href="391A3AF637F4E6DF.png"  transform="matrix(1 0 0 1 820.9606 509.9606)">
	</image>
	<g>
		<circle class="st2" cx="914" cy="602.9" r="5.2"/>
	</g>
</g>
<g>
	
		<image style="overflow:visible;opacity:0.75;" width="186" height="186" xlink:href="391A3AF637F4E6DC.png"  transform="matrix(1 0 0 1 779.9606 578.9606)">
	</image>
	<g>
		<circle class="st2" cx="873" cy="671.9" r="5.2"/>
	</g>
</g>
<g>
	
		<image style="overflow:visible;opacity:0.75;" width="186" height="186" xlink:href="391A3AF637F4E6D6.png"  transform="matrix(1 0 0 1 980.9606 324.9606)">
	</image>
	<g>
		<circle class="st2" cx="1074" cy="417.9" r="5.2"/>
	</g>
</g>
<g>
	
		<image style="overflow:visible;opacity:0.75;" width="186" height="186" xlink:href="391A3AF637F4E6E9.png"  transform="matrix(1 0 0 1 917.9606 198.9606)">
	</image>
	<g>
		<circle class="st2" cx="1011" cy="291.9" r="5.2"/>
	</g>
</g>
<g>
	
		<image style="overflow:visible;opacity:0.75;" width="186" height="186" xlink:href="391A3AF637F4E6EA.png"  transform="matrix(1 0 0 1 900.9606 156.9606)">
	</image>
	<g>
		<circle class="st2" cx="994" cy="249.9" r="5.2"/>
	</g>
</g>
<g>
	
		<image style="overflow:visible;opacity:0.75;" width="186" height="186" xlink:href="391A3AF637F4E6F8.png"  transform="matrix(1 0 0 1 779.9606 533.9606)">
	</image>
	<g>
		<circle class="st2" cx="873" cy="626.9" r="5.2"/>
	</g>
</g>
<g>
	
		<image style="overflow:visible;opacity:0.75;" width="186" height="186" xlink:href="391A3AF637F4E6C7.png"  transform="matrix(1 0 0 1 755.9606 489.9606)">
	</image>
	<g>
		<circle class="st2" cx="849" cy="582.9" r="5.2"/>
	</g>
</g>
<g>
	
		<image style="overflow:visible;opacity:0.75;" width="186" height="186" xlink:href="391A3AF637F4E6C8.png"  transform="matrix(1 0 0 1 795.9606 523.9606)">
	</image>
	<g>
		<circle class="st2" cx="889" cy="616.9" r="5.2"/>
	</g>
</g>
<g>
	
		<image style="overflow:visible;opacity:0.75;" width="186" height="186" xlink:href="391A3AF637F4E6CB.png"  transform="matrix(1 0 0 1 787.9606 507.9606)">
	</image>
	<g>
		<circle class="st2" cx="881" cy="600.9" r="5.2"/>
	</g>
</g>
<g>
	
		<image style="overflow:visible;opacity:0.75;" width="186" height="186" xlink:href="391A3AF637F4E6C9.png"  transform="matrix(1 0 0 1 763.9606 497.9606)">
	</image>
	<g>
		<circle class="st1" cx="857" cy="590.9" r="5.2"/>
		<circle class="st2" cx="857" cy="590.9" r="5.2"/>
	</g>
</g>
<g>
	
		<image style="overflow:visible;opacity:0.75;" width="186" height="186" xlink:href="391A3AF637F4E6CF.png"  transform="matrix(1 0 0 1 356.9606 197.9606)">
	</image>
	<g>
		<circle class="st2" cx="450" cy="290.9" r="5.2"/>
	</g>
</g>
<g>
	
		<image style="overflow:visible;opacity:0.75;" width="183" height="183" xlink:href="391A3AF637F4E6CA.png"  transform="matrix(1 0 0 1 881.9606 470.9606)">
	</image>
	<g>
		<circle class="st2" cx="973.4" cy="562.2" r="4.1"/>
	</g>
</g>
</svg>
